<?xml version="1.0" encoding="utf-8"?>
<!-- Generator: Adobe Illustrator 27.5.0, SVG Export Plug-In . SVG Version: 6.00 Build 0)  -->
<svg version="1.1" id="Capa_1" xmlns="http://www.w3.org/2000/svg" xmlns:xlink="http://www.w3.org/1999/xlink" x="0px" y="0px"
	 viewBox="0 0 2122 2122" style="enable-background:new 0 0 2122 2122;" xml:space="preserve">
<path style="fill:#8D3213;" d="M1890.738,547.846c-133.863-53.25-280.421-21.72-385.164,76.098
	c79.082-125.515,80.177-280.673-3.344-403.126c-86.24,88.013-125.325,220.758-103.447,337.169
	c-66.656-84.184-170.688-137.324-290.051-141.345c12.991,115.068,98.59,213.167,207.629,263.261
	c-117.227,5.683-236.26,72.892-302.291,175.472c127.476,50.169,266.169,23.667,369.235-63.488
	c-23.429,37.628-39.329,79-47.522,122.177c12.014,0.433,24.056,1.343,36.114,2.621c16.506-49.124,43.427-94.676,79.964-132.085
	c19.872,45.958,27.899,99.956,24.857,153.986c0.016,0.005,0.032,0.009,0.047,0.014c-0.017,0.032-0.036,0.064-0.054,0.096
	c-4.924,87.024-38.627,174.118-98.311,227.819c-10.561-25.787-17.741-52.668-21.78-79.95c-3.429,3.002-6.899,5.956-10.397,8.876
	c7.747,25.533,18.155,50.807,31.341,75.456c106.351-78.743,146.004-228.42,115.642-362.35
	c60.524,114.283,193.678,194.666,329.142,196.551c-25.584-138.184-125.87-243.642-259.399-282.664
	C1687.897,726.293,1819.63,657.431,1890.738,547.846z"/>
<g id="Capa_2">
</g>
<path style="fill:#721F0F;" d="M1477.514,652.38c64.821-107.327,69.199-247.662,8.007-357.218
	c-60.242,75.674-85.754,191.797-66.368,291.376c12.131,18.891,22.502,39.058,30.982,60.31
	c-20.684,2.508-37.375,19.353-38.915,40.913c-1.749,24.47,16.671,45.724,41.141,47.473c24.47,1.748,45.724-16.671,47.473-41.141
	C1501.093,676.486,1491.88,660.589,1477.514,652.38z"/>
<path style="fill:#A64617;" d="M1356.622,1086.566c4.647-4.067,9.219-8.218,13.735-12.432
	c16.839-15.714,32.748-32.428,47.559-50.063c22.26-26.506,42.059-55.061,58.797-85.374c0.017-0.032,0.036-0.064,0.054-0.096
	c-0.016-0.005-0.031-0.009-0.047-0.014c-14.417-4.574-28.886-8.456-43.376-11.754c-15.849-3.607-31.721-6.494-47.584-8.604
	c-4.623-0.615-9.242-1.055-13.862-1.544c-12.057-1.278-24.099-2.188-36.114-2.621c-154.18-5.562-303.374,57.874-412.678,175.616
	c102.229-191.245,87.662-417.588-46.871-587.429C759.663,639.563,716.504,837.183,760.53,1004.637
	c-105.958-115.801-263.178-182.443-437.633-175.87c30.908,166.305,165.749,300.397,329.796,362.135
	c-170.205,20.61-336.583,131.084-422.111,287.421c191.094,59.868,390.554,6.779,531.748-131.034
	c-88.694,168.068-80.452,376.275,31.114,553.215c146.853-125.883,189.079-348.231,130.873-540.336
	c100.159,160.307,302.675,263.618,500.371,252.256c-51.686-198.765-208.83-342.058-407.518-385.082
	c117.095-4.777,235.119-53.47,329.055-131.899C1349.722,1092.522,1353.193,1089.568,1356.622,1086.566z"/>
<path style="fill:#973415;" d="M1379.687,993.208c-172.594-38.245-359.658,20.776-483.153,146.68
	c-1.423-0.672-2.855-1.321-4.323-1.905c17.933,11.555,29.837,31.657,29.837,54.576c0,35.861-29.072,64.931-64.931,64.931
	c-35.861,0-64.931-29.071-64.931-64.931c0-5.671,0.802-11.141,2.168-16.384c-4.877,10.114-7.69,21.41-7.69,33.391
	c0,4.945,0.511,9.766,1.401,14.452c-28.876-3.395-57.491-9.07-85.512-16.841c-146.172,16.38-295.618,100.881-375.09,216.183
	c175.188,38.147,364.852-23.854,487.778-153.922c13.248,10.745,30.114,17.207,48.502,17.207c11.556,0,22.476-2.615,32.315-7.171
	c76.563,153.979,261.628,272.176,430.708,279.869c-60.31-168.558-212.961-296.491-388.056-332.125
	c1.261-5.372,1.99-10.942,2.061-16.682C1105.234,1215.886,1288.231,1124.862,1379.687,993.208z"/>
<path style="fill:#721F0F;" d="M1422.962,844.055c7.622,24.303,10.974,52.927,10.382,82.778c14.49,3.298,28.959,7.18,43.376,11.754
	c3.042-54.031-4.985-108.029-24.857-153.986c-36.537,37.409-63.458,82.961-79.964,132.085c4.62,0.489,9.239,0.929,13.862,1.544
	C1394.989,891.558,1407.442,866.288,1422.962,844.055z"/>
<path style="fill:#721F0F;" d="M1377.448,1105.961c-3.024-10.267-5.381-20.913-7.091-31.828c-4.516,4.214-9.089,8.365-13.735,12.432
	c4.04,27.282,11.219,54.163,21.78,79.95c59.684-53.701,93.387-140.795,98.311-227.819c-16.737,30.312-36.536,58.868-58.797,85.374
	C1408.481,1055.044,1394.878,1083.61,1377.448,1105.961z"/>
<path style="fill:#5E140B;" d="M1417.917,1024.071c-14.811,17.635-30.721,34.349-47.559,50.063
	c1.711,10.914,4.068,21.561,7.091,31.828C1394.878,1083.61,1408.481,1055.044,1417.917,1024.071z"/>
<path style="fill:#5E140B;" d="M1422.962,844.055c-15.52,22.233-27.973,47.503-37.202,74.174c15.863,2.11,31.735,4.997,47.584,8.604
	C1433.936,896.982,1430.584,868.358,1422.962,844.055z"/>
<path style="fill:#5E140B;" d="M1497.892,360.102c-43.205,67.685-56.796,187.823-24.468,264.703
	C1518.203,551.875,1528.209,444.414,1497.892,360.102z"/>
<path style="fill:#721F0F;" d="M1406.875,709.012c-19.482-3.713-38.656-9.011-57.346-15.653
	c-100.595,3.997-206.784,54.386-266.671,129.234c117.683,34.572,250.125,1.512,340.347-81.249
	C1414.292,732.994,1408.345,721.625,1406.875,709.012z"/>
<path style="fill:#5E140B;" d="M1148.924,820.253c88.937,10.863,191.502-22.728,252.684-82.566
	C1319.473,723.215,1205.341,763.112,1148.924,820.253z"/>
<path style="fill:#721F0F;" d="M1112.106,419.562c26.852,127.37,163.828,239.725,293.685,254.961
	C1368.729,541.786,1249.394,438.379,1112.106,419.562z"/>
<path style="fill:#5E140B;" d="M1164.987,449.083c31.213,77.34,125.492,153.033,203.837,170.635
	C1330.947,538.521,1248.143,469.3,1164.987,449.083z"/>
<path style="fill:#721F0F;" d="M1509.515,718.554c-4.86,15.609-16.689,27.905-31.651,33.578
	c44.737,108.803,165.255,198.479,280.254,211.972C1725.182,846.146,1627.256,751.407,1509.515,718.554z"/>
<path style="fill:#5E140B;" d="M1721.151,909.299c-37.878-81.197-120.681-150.418-203.838-170.636
	C1548.527,816.003,1642.805,891.697,1721.151,909.299z"/>
<path style="fill:#721F0F;" d="M1484.994,656.908c17.24,9.689,28.325,28.671,26.822,49.705c-0.016,0.223-0.063,0.436-0.08,0.659
	c111.963,11.67,241.271-41.52,310.097-126.896C1705.924,545.863,1575.401,577.017,1484.994,656.908z"/>
<path style="fill:#5E140B;" d="M1755.758,582.474c-88.896-11.188-191.584,22.027-252.984,81.64
	C1584.855,678.886,1699.133,639.408,1755.758,582.474z"/>
<path style="fill:#5E140B;" d="M1482.474,670.385c-6.334-12.64-24.514-16.349-40.607-8.285
	c-16.093,8.065-24.004,24.848-17.671,37.487c6.333,12.64,24.514,16.349,40.607,8.284
	C1480.896,699.807,1488.808,683.024,1482.474,670.385z"/>
<path style="fill:#43110F;" d="M1435.91,702.326c-2.969-8.685,2.044-19.64,12.337-25.752c9.211-5.47,19.812-5.378,26.386-0.453
	c-0.333-0.974-0.738-1.927-1.277-2.834c-5.339-8.991-18.946-10.768-30.393-3.971c-11.446,6.797-16.398,19.595-11.06,28.586
	C1432.947,699.659,1434.314,701.13,1435.91,702.326z"/>
<path style="fill:#973415;" d="M861.529,1329.521c-130.13,153.782-157.252,383.003-67.323,564.505
	C926.225,1756.998,949.691,1499.095,861.529,1329.521z"/>
<path style="fill:#842711;" d="M786.508,1805.834c67.924-101.237,82.094-277.402,39.076-386.614
	C758.462,1531.683,742.704,1688.657,786.508,1805.834z"/>
<path style="fill:#973415;" d="M859.618,612.389c-79.953,116.613-105.052,288.583-66.413,431.755
	c19.656,26.281,36.877,54.605,51.457,84.707c4.034-0.784,8.191-1.222,12.454-1.222c10.057,0,19.542,2.353,28.04,6.435
	C968.487,970.823,960.251,765.752,859.618,612.389z"/>
<path style="fill:#842711;" d="M884.42,705.785c-55.944,103.189-63.245,279.772-8.099,388.499
	C934.012,983.285,937.407,825.559,884.42,705.785z"/>
<path style="fill:#842711;" d="M423.545,1413.064c130.806,6.573,276.851-53.089,359.825-146.709
	C662.103,1253.81,499.85,1323.872,423.545,1413.064z"/>
<path style="fill:#973415;" d="M328.119,832.672c52.421,182.913,263.843,332.464,454.769,341.151
	C715.021,984.146,530.252,845.806,328.119,832.672z"/>
<path style="fill:#842711;" d="M408.296,870.205c53.568,109.513,198.916,210.057,314.982,227.56
	C659.592,983.321,531.649,891.02,408.296,870.205z"/>
<path style="fill:#842711;" d="M1267.156,1483.284c-63.686-114.444-191.629-206.745-314.982-227.56
	C1005.742,1365.237,1151.089,1465.781,1267.156,1483.284z"/>
<path style="fill:#842711;" d="M923.208,1148.541c121.218,12.989,283.728-56.478,360.36-145.39
	C1152.786,996.099,1006.523,1055.226,923.208,1148.541z"/>
<path style="fill:#842711;" d="M894.264,1159.799c-10.552-17.769-37.446-21.283-60.07-7.848
	c-22.624,13.435-32.411,38.73-21.86,56.499c10.552,17.769,37.447,21.283,60.07,7.849
	C895.029,1202.864,904.816,1177.568,894.264,1159.799z"/>
<path style="fill:#5F170C;" d="M840.711,1159.133c-17.25,10.243-24.711,29.529-16.666,43.077c1.572,2.647,3.63,4.864,6.037,6.666
	c-4.475-13.087,3.08-29.597,18.591-38.807c13.879-8.242,29.855-8.103,39.763-0.682c-0.502-1.468-1.114-2.904-1.925-4.27
	C878.465,1151.569,857.96,1148.89,840.711,1159.133z"/>
</svg>
